grf
version=1
nRows=15
nColumns=37
inDegrees=no
endheader
time	ground_force_1_vx	ground_force_1_vy	ground_force_1_vz	ground_force_1_px	ground_force_1_py	ground_force_1_pz	ground_moment_1_mx	ground_moment_1_my	ground_moment_1_mz	ground_force_2_vx	ground_force_2_vy	ground_force_2_vz	ground_force_2_px	ground_force_2_py	ground_force_2_pz	ground_moment_2_mx	ground_moment_2_my	ground_moment_2_mz	ground_force_3_vx	ground_force_3_vy	ground_force_3_vz	ground_force_3_px	ground_force_3_py	ground_force_3_pz	ground_moment_3_mx	ground_moment_3_my	ground_moment_3_mz	ground_force_4_vx	ground_force_4_vy	ground_force_4_vz	ground_force_4_px	ground_force_4_py	ground_force_4_pz	ground_moment_4_mx	ground_moment_4_my	ground_moment_4_mz
      6.60000000	      0.00000000	     -0.00000000	      0.00000000	      0.00000000	      0.00000000	      0.00000000	      0.00000000	      0.00000000	      0.00000000	      4.82722044	     35.69517899	   -191.94714355	   -184.89014526	  -1070.88679440	      0.00000000	      0.00000000	     -0.00000000	   -668.99628383	    -10.58281685	    -41.08264449	   -219.48585510	   -189.45730310	   -666.03697738	      0.00000000	      0.00000000	     -0.00000000	   -261.17620183	      0.00000000	     -0.00000000	      0.00000000	      0.00000000	      0.00000000	      0.00000000	      0.00000000	      0.00000000	      0.00000000
      6.61000000	      0.00000000	     -0.00000000	      0.00000000	      0.00000000	      0.00000000	      0.00000000	      0.00000000	      0.00000000	      0.00000000	      7.82394075	     28.13302612	   -161.56109619	   -179.28359810	  -1076.88161240	      0.00000000	      0.00000000	     -0.00000000	   -530.01137578	     -6.88345397	    -34.16737306	   -187.35276794	   -189.23978497	   -661.47819531	      0.00000000	      0.00000000	     -0.00000000	   -333.88518120	      0.00000000	     -0.00000000	      0.00000000	      0.00000000	      0.00000000	      0.00000000	      0.00000000	      0.00000000	      0.00000000
      6.62000000	      0.00000000	     -0.00000000	      0.00000000	      0.00000000	      0.00000000	      0.00000000	      0.00000000	      0.00000000	      0.00000000	      8.29657745	     22.57670212	   -138.21646118	   -176.29300010	  -1073.38843367	      0.00000000	      0.00000000	     -0.00000000	   -394.46568057	     -4.97698704	    -29.07103114	   -162.91333008	   -190.02800925	   -662.11682187	      0.00000000	      0.00000000	     -0.00000000	   -216.69220185	      0.00000000	     -0.00000000	      0.00000000	      0.00000000	      0.00000000	      0.00000000	      0.00000000	      0.00000000	      0.00000000
      6.63000000	      0.00000000	     -0.00000000	      0.00000000	      0.00000000	      0.00000000	      0.00000000	      0.00000000	      0.00000000	      0.00000000	      7.55602741	     19.02503777	   -121.01934052	   -175.01921815	  -1073.71858432	      0.00000000	      0.00000000	     -0.00000000	   -364.02474073	     -4.37347125	    -27.14128075	   -146.95823669	   -191.38678432	   -661.47984094	      0.00000000	     -0.00000000	     -0.00000000	    -70.67133764	      0.00000000	     -0.00000000	      0.00000000	      0.00000000	      0.00000000	      0.00000000	      0.00000000	      0.00000000	      0.00000000
      6.64000000	      0.00000000	     -0.00000000	      0.00000000	      0.00000000	      0.00000000	      0.00000000	      0.00000000	      0.00000000	      0.00000000	      6.46368170	     17.80443001	   -113.83089447	   -173.97429994	  -1076.23292058	      0.00000000	      0.00000000	     -0.00000000	   -617.14519348	     -2.60446109	    -26.08987213	   -137.07832336	   -193.95881620	   -659.61017272	      0.00000000	      0.00000000	      0.00000000	   -200.79247632	      0.00000000	     -0.00000000	      0.00000000	      0.00000000	      0.00000000	      0.00000000	      0.00000000	      0.00000000	      0.00000000
      6.65000000	      0.00000000	     -0.00000000	      0.00000000	      0.00000000	      0.00000000	      0.00000000	      0.00000000	      0.00000000	      0.00000000	      7.51503992	     17.88809395	   -106.22261047	   -175.94467496	  -1079.58861911	      0.00000000	      0.00000000	     -0.00000000	   -648.02495673	     -2.59952962	    -25.83012749	   -132.73057556	   -199.18901786	   -662.53256388	      0.00000000	      0.00000000	     -0.00000000	   -101.50864208	      0.00000000	     -0.00000000	      0.00000000	      0.00000000	      0.00000000	      0.00000000	      0.00000000	      0.00000000	      0.00000000
      6.66000000	      0.00000000	     -0.00000000	      0.00000000	      0.00000000	      0.00000000	      0.00000000	      0.00000000	      0.00000000	      0.00000000	      7.92609930	     18.40173531	   -102.91259766	   -180.80904325	  -1080.54777121	      0.00000000	      0.00000000	     -0.00000000	   -862.40222834	     -2.22371833	    -26.36025219	   -132.78405762	   -203.31044462	   -664.65488951	      0.00000000	      0.00000000	      0.00000000	     58.46709837	      0.00000000	     -0.00000000	      0.00000000	      0.00000000	      0.00000000	      0.00000000	      0.00000000	      0.00000000	      0.00000000
      6.67000000	      0.00000000	     -0.00000000	      0.00000000	      0.00000000	      0.00000000	      0.00000000	      0.00000000	      0.00000000	      0.00000000	      9.17497063	     20.02694130	   -102.47646332	   -181.66482410	  -1079.43423057	      0.00000000	      0.00000000	     -0.00000000	  -1121.72348300	      0.95574764	    -26.84979256	   -138.50614929	   -217.33620693	   -666.78793391	      0.00000000	      0.00000000	      0.00000000	     68.91477771	      0.00000000	     -0.00000000	      0.00000000	      0.00000000	      0.00000000	      0.00000000	      0.00000000	      0.00000000	      0.00000000
      6.68000000	      0.00000000	     -0.00000000	      0.00000000	      0.00000000	      0.00000000	      0.00000000	      0.00000000	      0.00000000	      0.00000000	     12.02241135	     22.92681885	   -111.44123077	   -195.79727011	  -1087.35587145	      0.00000000	      0.00000000	     -0.00000000	  -1439.72414440	      7.34240243	    -27.58357112	   -155.18388367	   -235.99829500	   -670.33281822	      0.00000000	     -0.00000000	     -0.00000000	    -91.47325688	      0.00000000	     -0.00000000	      0.00000000	      0.00000000	      0.00000000	      0.00000000	      0.00000000	      0.00000000	      0.00000000
      6.69000000	      0.00000000	     -0.00000000	      0.00000000	      0.00000000	      0.00000000	      0.00000000	      0.00000000	      0.00000000	      0.00000000	     17.25146866	     26.33342552	   -121.38429260	   -208.75763733	  -1080.41364249	      0.00000000	      0.00000000	     -0.00000000	  -1638.07639792	     15.24452432	    -29.13248958	   -178.27934265	   -253.32538039	   -675.91512919	      0.00000000	      0.00000000	      0.00000000	    118.60291965	      0.00000000	     -0.00000000	      0.00000000	      0.00000000	      0.00000000	      0.00000000	      0.00000000	      0.00000000	      0.00000000
      6.70000000	      0.00000000	     -0.00000000	      0.00000000	      0.00000000	      0.00000000	      0.00000000	      0.00000000	      0.00000000	      0.00000000	     22.24695396	     27.09564209	   -142.37664795	   -227.16722389	  -1079.20027616	      0.00000000	      0.00000000	     -0.00000000	  -1529.30422609	     23.17320928	    -31.66625988	   -211.28312683	   -267.58620311	   -683.66985065	      0.00000000	      0.00000000	      0.00000000	   -149.93710491	      0.00000000	     -0.00000000	      0.00000000	      0.00000000	      0.00000000	      0.00000000	      0.00000000	      0.00000000	      0.00000000
      6.71000000	      0.00000000	     -0.00000000	      0.00000000	      0.00000000	      0.00000000	      0.00000000	      0.00000000	      0.00000000	      0.00000000	     27.12532234	     27.03444672	   -166.85380554	   -244.77377937	  -1070.13584018	      0.00000000	      0.00000000	     -0.00000000	   -715.66890274	     29.34658139	    -33.52083081	   -252.58921814	   -278.04955439	   -688.93777572	      0.00000000	      0.00000000	     -0.00000000	   -382.04369291	      0.00000000	     -0.00000000	      0.00000000	      0.00000000	      0.00000000	      0.00000000	      0.00000000	      0.00000000	      0.00000000
      6.72000000	      0.00000000	     -0.00000000	      0.00000000	      0.00000000	      0.00000000	      0.00000000	      0.00000000	      0.00000000	      0.00000000	     29.99796867	     25.44429398	   -199.28771973	   -257.44705540	  -1062.08572829	      0.00000000	     -0.00000000	     -0.00000000	   -441.24675811	     32.71146857	    -34.13886165	   -292.04040527	   -284.22159173	   -693.63179630	      0.00000000	      0.00000000	     -0.00000000	   -691.88962679	      0.00000000	     -0.00000000	      0.00000000	      0.00000000	      0.00000000	      0.00000000	      0.00000000	      0.00000000	      0.00000000
      6.73000000	      0.00000000	     -0.00000000	      0.00000000	      0.00000000	      0.00000000	      0.00000000	      0.00000000	      0.00000000	      0.00000000	     31.13446808	     22.91614532	   -235.83012390	   -265.53744095	  -1059.70892233	      0.00000000	      0.00000000	      0.00000000	    165.63710716	     31.99190025	    -34.96144765	   -328.18423462	   -288.77685254	   -695.05980929	      0.00000000	      0.00000000	      0.00000000	   -765.51828818	      0.00000000	     -0.00000000	      0.00000000	      0.00000000	      0.00000000	      0.00000000	      0.00000000	      0.00000000	      0.00000000
      6.74000000	      0.00000000	     -0.00000000	      0.00000000	      0.00000000	      0.00000000	      0.00000000	      0.00000000	      0.00000000	      0.00000000	     29.65035057	     22.92068672	   -265.60751343	   -269.78836957	  -1052.81413459	      0.00000000	      0.00000000	      0.00000000	    509.29383512	     27.93960435	    -37.42038208	   -356.33453369	   -289.10323086	   -696.60411644	      0.00000000	      0.00000000	      0.00000000	   -796.65275774	      0.00000000	     -0.00000000	      0.00000000	      0.00000000	      0.00000000	      0.00000000	      0.00000000	      0.00000000	      0.00000000
